<?xml version="1.0" standalone="no"?>
<!DOCTYPE svg PUBLIC "-//W3C//DTD SVG 20010904//EN"
 "http://www.w3.org/TR/2001/REC-SVG-20010904/DTD/svg10.dtd">
<svg version="1.0" xmlns="http://www.w3.org/2000/svg"
 width="457.000000pt" height="304.000000pt" viewBox="0 0 457.000000 304.000000"
 preserveAspectRatio="xMidYMid meet">
<g transform="translate(0.000000,304.000000) scale(0.100000,-0.100000)"
fill="#000000" stroke="none">
<path d="M1875 2374 c-494 -39 -917 -187 -1186 -417 -142 -121 -236 -257 -285
-412 -31 -99 -42 -253 -25 -346 l12 -64 47 -1 c26 -1 447 -5 936 -9 l888 -8
-6 -36 c-3 -20 -6 -178 -6 -352 l0 -316 -106 18 c-244 42 -521 150 -684 269
l-65 47 -110 -4 c-221 -6 -650 -25 -653 -28 -7 -6 185 -164 262 -216 271 -180
610 -304 996 -361 136 -20 189 -23 438 -22 155 1 292 4 305 8 21 5 23 11 24
68 0 35 4 314 8 621 6 470 5 557 -7 557 -7 0 -220 15 -473 34 -253 19 -527 37
-610 40 -211 9 -341 16 -403 22 l-52 5 37 72 c93 176 290 325 558 422 143 52
417 105 541 105 12 0 15 -29 13 -177 l-1 -178 202 -28 c111 -16 203 -27 205
-25 1 2 5 150 8 330 l7 327 -53 10 c-169 34 -585 59 -762 45z m50 -24 c-4 -6
7 -10 25 -10 22 0 29 4 24 13 -5 9 -4 9 6 0 8 -7 22 -8 41 -3 17 5 29 5 29 -1
0 -5 5 -9 11 -9 5 0 7 4 4 10 -4 6 16 9 49 7 31 -1 56 -5 56 -9 0 -5 7 -8 15
-8 8 0 15 5 15 10 0 6 8 10 18 10 15 0 15 -2 2 -11 -12 -8 -10 -10 10 -5 31 7
175 -5 162 -13 -6 -3 24 -7 64 -8 41 -1 84 -8 95 -14 16 -8 20 -8 14 1 -6 9
-3 9 12 2 10 -6 25 -10 33 -10 39 2 52 -3 46 -17 -3 -8 -1 -15 5 -15 6 0 3 -7
-5 -16 -18 -18 -21 -28 -5 -19 7 5 9 -51 5 -191 -2 -110 -5 -232 -5 -272 l-1
-73 -50 4 c-28 2 -53 7 -56 10 -3 3 -12 3 -19 1 -7 -3 -23 0 -35 6 -18 9 -21
9 -15 0 5 -8 2 -10 -11 -6 -18 5 -95 17 -137 21 -25 2 -38 25 -26 47 6 11 6
25 1 36 -5 9 -9 51 -7 92 1 41 0 99 -3 128 l-5 52 -76 0 c-83 -1 -325 -33
-302 -41 8 -3 -4 -5 -25 -5 -21 0 -43 4 -47 10 -6 7 -7 4 -3 -6 3 -11 -2 -19
-17 -24 -12 -5 -25 -7 -29 -6 -15 4 -172 -58 -180 -70 -6 -10 -8 -10 -8 -1 0
7 -7 10 -15 7 -8 -4 -12 -10 -9 -15 3 -5 -1 -9 -8 -9 -8 0 -31 -9 -52 -20 -22
-10 -43 -17 -49 -13 -6 4 -7 1 -2 -7 6 -10 4 -12 -8 -7 -10 4 -16 2 -14 -4 1
-6 -7 -16 -17 -22 -11 -7 -29 -20 -40 -29 -11 -10 -26 -18 -33 -18 -8 0 -16
-7 -20 -16 -3 -8 -12 -13 -19 -10 -8 3 -11 0 -7 -10 3 -7 1 -14 -5 -14 -11 0
-70 -56 -90 -86 -7 -10 -10 -13 -7 -6 3 6 4 12 1 12 -3 0 -12 -16 -20 -35 -8
-19 -20 -35 -27 -35 -7 0 -9 -3 -6 -6 4 -4 -2 -19 -13 -34 -10 -14 -20 -33
-22 -41 -2 -8 -9 -19 -17 -25 -10 -8 -11 -13 -3 -18 6 -4 8 -14 5 -23 -5 -13
-2 -15 11 -10 9 4 15 3 12 -2 -6 -9 79 -16 459 -36 44 -2 161 -9 260 -16 99
-6 192 -11 207 -12 15 0 26 -3 24 -6 -2 -3 33 -6 77 -6 45 0 116 -3 157 -7 41
-4 134 -10 206 -14 l132 -7 -3 -156 c-1 -86 -6 -355 -10 -599 l-8 -442 -56 -2
c-31 0 -99 -1 -153 -2 -53 -1 -91 -4 -86 -8 6 -3 -12 -6 -40 -5 -28 0 -49 4
-46 8 2 4 -10 4 -28 -2 -18 -5 -41 -6 -52 -3 -11 4 -47 8 -81 10 -83 5 -136
11 -165 17 -39 9 -122 20 -153 20 -20 0 -24 2 -15 8 8 6 -1 9 -27 9 -47 0
-124 25 -104 33 9 3 9 6 2 6 -6 1 -14 -3 -17 -8 -6 -10 -102 13 -122 30 -8 6
-23 9 -34 6 -13 -3 -18 -1 -13 6 4 7 0 8 -11 4 -13 -5 -17 -3 -13 6 4 11 -4
14 -31 13 -21 -1 -36 4 -35 9 1 6 -7 11 -17 11 -10 0 -16 -4 -14 -8 10 -16 -6
-8 -32 17 -15 14 -32 25 -38 25 -6 0 -4 -5 4 -10 8 -5 11 -10 5 -10 -20 0
-105 57 -98 65 5 4 3 5 -4 2 -15 -9 -45 2 -37 14 3 5 -3 6 -12 2 -14 -5 -16
-3 -11 13 7 18 6 18 -7 1 -12 -16 -16 -15 -50 12 -24 19 -32 31 -24 35 7 3 4
4 -8 1 -13 -4 -30 4 -48 20 -16 15 -31 24 -33 21 -3 -3 -12 2 -20 10 -8 8 -19
12 -24 8 -5 -3 -9 -2 -8 3 4 20 -2 34 -11 28 -14 -9 -60 22 -60 40 0 7 -5 17
-12 21 -7 5 -9 2 -4 -7 6 -10 4 -10 -6 1 -7 8 -22 20 -32 26 -11 5 -25 19 -33
30 -12 19 -11 20 16 20 16 -1 33 -4 37 -8 11 -12 26 -9 19 3 -5 6 10 10 42 9
26 -1 156 3 288 9 293 12 274 13 304 -15 14 -13 29 -20 34 -17 6 3 7 2 4 -4
-4 -6 12 -18 34 -28 32 -15 39 -23 35 -38 -4 -15 -2 -17 7 -8 14 14 40 15 31
0 -4 -8 1 -9 17 -4 23 7 24 7 4 -9 -23 -18 -13 -21 16 -6 14 8 19 8 17 -2 -2
-6 2 -12 7 -13 23 -1 103 -39 99 -47 -3 -5 7 -6 22 -2 21 5 25 4 19 -6 -6 -10
-4 -12 8 -7 10 3 17 2 17 -3 0 -5 7 -7 15 -4 8 4 15 1 15 -5 0 -6 8 -11 18
-11 10 0 22 -3 26 -7 3 -4 12 -8 19 -9 7 -2 42 -12 79 -22 36 -11 69 -18 72
-15 3 3 12 -2 20 -10 9 -8 25 -13 36 -10 11 3 42 0 68 -7 26 -7 54 -14 63 -16
23 -6 49 22 49 54 0 22 2 24 11 12 9 -12 9 -11 3 5 -8 23 -13 345 -4 345 3 0
4 55 3 123 -2 185 -3 191 -11 205 -7 10 -125 14 -553 17 -299 3 -663 8 -809
11 -146 3 -315 6 -376 7 -77 0 -114 5 -122 14 -10 10 -10 13 0 13 11 0 11 2 0
9 -9 5 -13 38 -13 115 0 58 2 110 5 114 5 8 14 46 20 82 6 35 27 96 37 110 9
13 10 12 5 -3 -3 -11 -2 -16 5 -12 5 4 7 16 3 27 -4 14 2 28 21 48 15 16 24
33 21 38 -4 6 -1 14 5 18 6 3 15 0 20 -7 5 -9 7 -2 4 18 -2 18 1 36 7 39 7 5
8 2 3 -6 -5 -9 -4 -11 3 -6 7 4 12 14 12 23 0 9 6 13 14 10 10 -4 12 0 9 13
-4 14 5 25 31 41 25 14 35 27 31 36 -3 10 -1 13 9 10 8 -3 16 -1 18 4 2 6 12
12 23 14 11 2 22 4 24 4 2 1 -2 7 -8 15 -9 11 -8 14 6 12 10 0 18 4 18 11 0 6
4 15 9 20 5 5 6 3 2 -4 -4 -7 -3 -13 3 -13 5 0 14 6 18 14 4 7 24 26 43 42 19
16 30 22 25 14 -5 -8 8 0 30 18 22 17 48 32 58 32 11 0 15 5 11 11 -5 8 -1 8
14 0 11 -6 27 -11 34 -10 7 0 2 5 -12 11 -25 11 -25 11 15 23 22 7 39 18 37
25 -1 6 2 9 7 6 5 -3 22 1 37 9 16 8 39 15 51 15 12 0 25 5 29 11 3 6 15 8 26
6 11 -3 17 -3 14 0 -3 4 24 19 61 35 77 32 77 32 67 17 -4 -7 1 -7 16 1 12 6
29 9 38 5 9 -3 13 -3 9 1 -4 4 16 16 45 26 59 20 70 22 48 8 -12 -8 -10 -10 8
-10 15 0 21 4 16 12 -5 7 -2 9 8 5 9 -3 21 0 28 6 10 9 14 9 17 -2 4 -8 8 -10
12 -3 9 14 139 35 169 27 14 -3 21 -2 18 4 -3 5 2 7 11 5 13 -3 126 14 161 25
2 1 0 -3 -3 -9z"/>
<path d="M1436 2263 c-6 -14 -5 -15 5 -6 7 7 10 15 7 18 -3 3 -9 -2 -12 -12z"/>
<path d="M2300 2051 c0 -11 4 -22 9 -25 4 -3 6 6 3 19 -5 30 -12 33 -12 6z"/>
<path d="M825 2010 c-3 -6 1 -7 9 -4 18 7 21 14 7 14 -6 0 -13 -4 -16 -10z"/>
<path d="M1355 1830 c-3 -5 -1 -10 4 -10 6 0 11 5 11 10 0 6 -2 10 -4 10 -3 0
-8 -4 -11 -10z"/>
<path d="M1210 1750 c-9 -6 -10 -10 -3 -10 6 0 15 5 18 10 8 12 4 12 -15 0z"/>
<path d="M1230 1735 c-7 -9 -8 -15 -2 -15 5 0 12 7 16 15 3 8 4 15 2 15 -2 0
-9 -7 -16 -15z"/>
<path d="M451 1574 c0 -11 3 -14 6 -6 3 7 2 16 -1 19 -3 4 -6 -2 -5 -13z"/>
<path d="M1883 1383 c9 -2 23 -2 30 0 6 3 -1 5 -18 5 -16 0 -22 -2 -12 -5z"/>
<path d="M2291 704 c0 -11 3 -14 6 -6 3 7 2 16 -1 19 -3 4 -6 -2 -5 -13z"/>
<path d="M1391 687 c2 -1 13 -9 24 -17 19 -14 19 -14 6 3 -7 9 -18 17 -24 17
-6 0 -8 -1 -6 -3z"/>
<path d="M2870 2074 c0 -110 -3 -371 -7 -581 l-6 -383 461 0 c414 0 522 6 449
23 -12 3 -142 6 -288 6 -147 1 -275 4 -285 7 -12 4 -15 3 -7 -3 6 -4 -22 -7
-65 -7 -43 1 -112 2 -155 3 l-78 1 3 423 c4 609 6 664 23 664 8 0 12 -3 10 -7
-2 -4 8 -7 23 -8 28 -1 99 -32 73 -32 -8 0 -12 -3 -9 -6 3 -3 15 0 25 7 16 9
24 9 39 0 17 -11 17 -12 1 -7 -11 4 -16 2 -12 -5 4 -5 15 -7 25 -4 10 3 25 -1
33 -10 9 -8 20 -15 24 -14 4 1 20 -1 35 -5 25 -7 26 -10 16 -30 -10 -19 -10
-20 6 -7 14 12 19 11 32 -5 9 -10 13 -13 9 -6 -8 16 10 16 23 -1 6 -7 27 -19
46 -27 19 -7 33 -17 30 -22 -3 -4 2 -8 11 -8 9 0 14 -4 11 -9 -4 -5 4 -7 16
-3 16 4 19 2 13 -8 -5 -9 -4 -11 4 -6 15 9 53 -32 44 -47 -3 -6 -1 -7 6 -3 6
4 8 13 5 19 -4 7 4 1 17 -13 13 -13 23 -28 21 -33 -1 -5 2 -6 8 -2 11 7 70
-25 70 -38 0 -4 -5 -5 -12 -1 -7 4 -8 3 -4 -4 4 -6 13 -9 21 -6 8 3 21 -6 31
-21 9 -14 22 -24 29 -22 6 3 17 -4 24 -15 11 -17 10 -22 -1 -30 -9 -5 -4 -7
14 -4 21 4 26 1 21 -11 -4 -11 -2 -14 5 -9 7 4 12 3 12 -2 0 -5 11 -14 24 -22
14 -7 22 -18 19 -26 -3 -8 1 -14 11 -14 9 0 16 -4 16 -9 0 -6 11 -22 25 -37
33 -35 56 -82 44 -89 -12 -8 -120 2 -151 14 -12 4 -31 7 -41 5 -9 -1 -15 2
-12 6 3 5 -4 15 -15 23 -11 7 -17 17 -13 20 3 4 -1 7 -10 7 -15 0 -19 6 -16
28 1 4 5 6 11 4 5 -1 7 2 3 8 -4 7 -11 8 -18 1 -8 -6 -23 1 -46 24 -19 19 -39
31 -45 28 -6 -4 -5 0 2 9 11 14 11 16 -6 12 -26 -7 -92 54 -71 67 8 5 9 9 4 9
-6 0 -16 -5 -22 -11 -9 -9 -16 -7 -28 5 -10 9 -33 23 -53 32 -30 12 -34 17
-22 25 11 8 9 9 -9 4 -16 -5 -21 -4 -17 4 5 7 1 8 -10 4 -11 -4 -15 -3 -10 5
3 6 1 14 -5 18 -8 4 -9 3 -5 -4 4 -7 1 -12 -8 -12 -8 0 -17 6 -19 13 -4 9 -6
9 -6 -1 -1 -7 -6 -10 -13 -6 -7 4 -8 3 -4 -5 4 -6 31 -23 59 -37 104 -53 220
-136 305 -220 79 -78 90 -86 133 -90 25 -3 86 -11 135 -18 49 -8 90 -12 92
-11 11 10 -135 203 -212 280 -180 179 -522 381 -749 440 -29 7 -60 17 -69 20
-17 7 -18 -6 -18 -191z"/>
<path d="M2978 2183 c7 -3 16 -2 19 1 4 3 -2 6 -13 5 -11 0 -14 -3 -6 -6z"/>
<path d="M565 1909 c-4 -6 -5 -12 -2 -15 2 -3 7 2 10 11 7 17 1 20 -8 4z"/>
<path d="M3171 1833 c1 -43 1 -170 0 -282 -1 -178 1 -206 15 -222 10 -11 24
-19 33 -18 12 0 11 3 -4 9 -15 7 -10 9 23 9 23 1 42 -2 42 -6 0 -5 57 -9 126
-10 69 -1 141 -7 160 -12 22 -6 34 -6 34 0 0 6 4 7 10 4 5 -3 42 -8 82 -10
251 -15 249 -15 260 -30 5 -6 8 -4 9 5 1 8 5 -3 9 -25 5 -22 6 -65 4 -95 -3
-30 -6 -71 -7 -90 -2 -19 -6 -41 -10 -47 -5 -7 -5 -18 -1 -25 5 -7 3 -8 -6 -3
-10 6 -12 4 -7 -8 3 -9 1 -17 -5 -19 -6 -2 -10 -16 -10 -30 0 -14 -11 -39 -25
-54 -14 -16 -22 -36 -19 -47 3 -14 2 -16 -9 -7 -11 9 -12 7 -9 -7 3 -11 -3
-27 -15 -37 -12 -11 -21 -25 -21 -31 0 -7 -16 -25 -35 -39 -19 -15 -35 -32
-35 -37 0 -19 -35 -56 -48 -51 -7 2 -10 -2 -7 -10 4 -13 -88 -93 -109 -93 -6
0 -11 -7 -11 -15 0 -9 -8 -14 -18 -12 -9 2 -17 -2 -17 -8 0 -6 -4 -9 -9 -6 -5
3 -15 -2 -22 -11 -12 -14 -12 -16 0 -8 9 5 12 4 7 -3 -4 -6 -13 -9 -21 -5 -10
3 -15 -1 -15 -13 0 -9 -3 -15 -6 -11 -3 3 -24 -5 -45 -19 -22 -13 -56 -28 -77
-33 -20 -5 -28 -9 -17 -10 17 -1 15 -4 -9 -16 -22 -12 -32 -12 -43 -4 -10 9
-12 9 -8 -3 4 -9 -4 -19 -20 -26 -32 -15 -38 -15 -29 0 8 12 -4 7 -48 -24 -16
-11 -36 -18 -45 -17 -10 0 -21 0 -25 -1 -5 -1 -11 -3 -15 -5 -5 -1 -15 -4 -23
-7 -48 -19 -84 -27 -93 -21 -6 4 -7 1 -3 -6 5 -8 3 -12 -5 -10 -28 3 -50 -1
-45 -10 3 -5 -9 -7 -27 -6 -42 4 -41 3 -28 18 6 8 8 17 5 20 -8 7 -5 549 2
557 3 3 62 6 130 7 68 1 129 5 135 8 6 5 9 -45 8 -146 -1 -129 2 -155 15 -164
9 -7 13 -15 10 -18 -9 -9 40 5 53 15 7 5 17 7 23 3 6 -4 9 -1 8 5 -2 6 20 20
48 31 27 10 60 28 72 39 21 20 32 14 12 -6 -6 -6 -2 -10 12 -11 14 -1 18 1 11
5 -16 10 -3 28 26 37 18 5 20 9 10 16 -11 7 -10 9 4 9 11 0 28 10 39 23 11 12
17 17 14 10 -4 -6 -2 -15 4 -18 6 -4 9 -1 8 7 -2 7 2 12 9 11 7 -2 10 4 7 12
-4 9 7 22 30 36 20 11 36 25 36 31 0 5 5 6 11 3 6 -4 9 0 7 11 -2 13 2 18 12
16 8 -2 12 -1 8 3 -8 9 14 35 24 28 4 -2 5 4 1 13 -5 13 -3 15 7 9 8 -5 11 -4
6 3 -3 6 -1 14 6 19 7 4 18 17 25 28 6 11 15 19 21 18 5 -1 7 9 4 22 -2 15 0
25 7 25 6 0 11 8 11 17 0 9 7 24 15 33 16 18 27 120 13 120 -5 0 -10 -6 -12
-12 -49 -168 -99 -252 -214 -359 -78 -72 -211 -158 -314 -203 l-58 -26 0 168
0 167 -157 -3 c-87 -1 -162 -4 -168 -6 -6 -2 -11 -128 -14 -340 -2 -277 -1
-336 10 -336 8 0 95 25 194 56 507 159 835 439 931 794 16 59 25 272 13 285
-10 9 -501 45 -649 47 l-155 3 3 268 c3 231 1 269 -12 283 -14 14 -16 8 -15
-63z m806 -765 c-3 -8 -6 -5 -6 6 -1 11 2 17 5 13 3 -3 4 -12 1 -19z m-187
-393 c-7 -9 -15 -13 -19 -10 -3 3 1 10 9 15 21 14 24 12 10 -5z"/>
<path d="M3565 1850 c-3 -6 1 -7 9 -4 18 7 21 14 7 14 -6 0 -13 -4 -16 -10z"/>
<path d="M3800 1626 c0 -2 7 -9 15 -16 13 -11 14 -10 9 4 -5 14 -24 23 -24 12z"/>
<path d="M3760 1580 c0 -5 5 -10 11 -10 5 0 7 5 4 10 -3 6 -8 10 -11 10 -2 0
-4 -4 -4 -10z"/>
<path d="M326 1517 c3 -10 9 -15 12 -12 3 3 0 11 -7 18 -10 9 -11 8 -5 -6z"/>
<path d="M3181 1294 c0 -11 3 -14 6 -6 3 7 2 16 -1 19 -3 4 -6 -2 -5 -13z"/>
<path d="M3726 867 c3 -10 9 -15 12 -12 3 3 0 11 -7 18 -10 9 -11 8 -5 -6z"/>
<path d="M3641 737 c-13 -21 -12 -21 5 -5 10 10 16 20 13 22 -3 3 -11 -5 -18
-17z"/>
<path d="M1650 630 c-12 -7 -10 -9 7 -7 12 0 19 5 17 9 -6 10 -6 10 -24 -2z"/>
<path d="M3685 629 c-4 -6 -5 -12 -2 -15 2 -3 7 2 10 11 7 17 1 20 -8 4z"/>
<path d="M3126 505 c-9 -26 -7 -32 5 -12 6 10 9 21 6 23 -2 3 -7 -2 -11 -11z"/>
<path d="M3446 463 c-6 -14 -5 -15 5 -6 7 7 10 15 7 18 -3 3 -9 -2 -12 -12z"/>
</g>
</svg>
